<?xml version="1.0" encoding="UTF-8"?><svg id="Layer_2" xmlns="http://www.w3.org/2000/svg" xmlns:xlink="http://www.w3.org/1999/xlink" viewBox="0 0 247.93 241.41"><defs><style>.cls-1{fill:url(#linear-gradient);}.cls-2{fill:#fff;}.cls-3{fill:#231f20;}.cls-4{fill:url(#linear-gradient-2);}</style><linearGradient id="linear-gradient" x1="0" y1="120.71" x2="247.93" y2="120.71" gradientUnits="userSpaceOnUse"><stop offset="0" stop-color="#f3775e"/><stop offset=".34" stop-color="#f05553"/><stop offset=".65" stop-color="#ef3b4b"/></linearGradient><linearGradient id="linear-gradient-2" x1="96.58" y1="167.43" x2="247.84" y2="167.43" gradientUnits="userSpaceOnUse"><stop offset="0" stop-color="#fec86b"/><stop offset=".41" stop-color="#f6b836"/><stop offset=".65" stop-color="#f3b11c"/></linearGradient></defs><g id="Layer_1-2"><g><polygon class="cls-1" points="0 241.41 247.93 0 247.93 125.92 127.88 241.41 0 241.41"/><g><path class="cls-2" d="M51.38,214.99l-2.97,2.91-1.73-1.77,8.09-7.93,1.73,1.77-2.97,2.91,8.32,8.49-2.15,2.1-8.32-8.49Z"/><path class="cls-2" d="M55.95,207.04l2.15-2.1,4.08,4.17,4.62-4.53-4.08-4.17,2.15-2.1,10.05,10.26-2.15,2.1-4.23-4.32-4.62,4.53,4.23,4.32-2.15,2.1-10.05-10.26Z"/><path class="cls-2" d="M66.58,196.63l2.15-2.1,10.05,10.26-2.15,2.1-10.05-10.26Z"/><path class="cls-2" d="M81.93,201.34c-.84,.35-1.65,.47-2.44,.37-.79-.11-1.51-.46-2.17-1.05l-.12-.11,2.03-1.99,.09,.06c.31,.22,.65,.33,1.03,.33,.38,0,.78-.09,1.19-.29,.41-.2,.81-.48,1.2-.86,.4-.39,.69-.78,.87-1.17,.18-.39,.25-.76,.22-1.11-.04-.35-.18-.66-.44-.92h0c-.34-.35-.74-.49-1.21-.42-.46,.07-1.08,.35-1.84,.85l-1.3,.84c-1.21,.79-2.3,1.2-3.29,1.21-.99,.02-1.86-.36-2.62-1.13h0c-.61-.64-.97-1.35-1.09-2.14-.12-.79-.01-1.61,.32-2.45,.33-.84,.88-1.63,1.64-2.37,.79-.78,1.6-1.32,2.42-1.64,.82-.32,1.61-.41,2.37-.28,.76,.13,1.45,.48,2.08,1.05l.13,.12-2.03,1.99-.1-.07c-.3-.24-.62-.37-.98-.39-.35-.03-.72,.04-1.09,.2-.37,.16-.74,.42-1.09,.76-.37,.36-.63,.72-.79,1.08-.16,.36-.22,.71-.18,1.03,.04,.32,.18,.61,.42,.85h0c.32,.33,.71,.46,1.18,.39,.47-.07,1.05-.34,1.76-.79l1.3-.84c.86-.56,1.64-.94,2.34-1.14,.71-.2,1.36-.22,1.95-.05,.59,.17,1.15,.52,1.68,1.05h0c.65,.67,1.04,1.4,1.18,2.2,.14,.8,.03,1.64-.33,2.51-.36,.87-.97,1.73-1.84,2.57-.81,.79-1.64,1.37-2.48,1.72Z"/><path class="cls-2" d="M82.51,181.02l2.15-2.1,10.05,10.26-2.15,2.1-10.05-10.26Z"/><path class="cls-2" d="M97.86,185.74c-.84,.35-1.65,.47-2.44,.37-.79-.11-1.51-.46-2.16-1.05l-.12-.11,2.03-1.99,.09,.06c.31,.22,.65,.33,1.03,.33,.38,0,.78-.09,1.19-.29,.41-.2,.81-.48,1.2-.86,.4-.39,.69-.78,.87-1.17s.25-.76,.22-1.11c-.04-.35-.18-.66-.44-.92h0c-.34-.35-.74-.49-1.21-.42-.46,.07-1.08,.35-1.84,.85l-1.3,.84c-1.21,.79-2.3,1.19-3.29,1.21-.99,.02-1.86-.36-2.62-1.13h0c-.61-.64-.97-1.35-1.09-2.14-.12-.79-.01-1.61,.32-2.45,.33-.84,.88-1.63,1.64-2.37,.79-.78,1.6-1.32,2.42-1.64s1.61-.41,2.37-.28c.76,.13,1.45,.48,2.08,1.05l.13,.12-2.03,1.99-.1-.07c-.3-.24-.62-.37-.98-.39s-.72,.04-1.09,.2c-.37,.16-.74,.42-1.09,.76-.36,.36-.63,.72-.79,1.08-.16,.36-.22,.71-.18,1.03,.04,.33,.18,.61,.42,.85h0c.32,.33,.71,.46,1.18,.39,.47-.07,1.05-.34,1.76-.79l1.3-.84c.86-.56,1.64-.94,2.34-1.14,.71-.2,1.36-.22,1.95-.05,.59,.17,1.15,.52,1.68,1.05h0c.65,.67,1.04,1.4,1.18,2.2s.03,1.64-.33,2.51c-.36,.87-.97,1.73-1.84,2.57-.81,.79-1.64,1.37-2.48,1.72Z"/><path class="cls-2" d="M101.36,162.56l1.9-1.86,1.95,1.99-.65,.64,5.53,10.79-2.25,2.21-6.47-13.77Zm3.24,.73l-1.95-1.99,1.24-1.22,13.63,6.76-2.26,2.21-10.66-5.76Zm1.68,6.54l4.79-4.69,2.1,1.09-5.84,5.72-1.05-2.12Z"/><path class="cls-2" d="M111.41,152.72l6.72-6.58,1.73,1.77-4.57,4.48,2.7,2.75,4.17-4.09,1.67,1.7-4.17,4.09,3.96,4.04-2.15,2.1-10.05-10.26Z"/><path class="cls-2" d="M119.39,144.9l4.24-4.15c.77-.75,1.55-1.26,2.36-1.54s1.59-.31,2.36-.11c.77,.2,1.49,.65,2.17,1.33h.01c.66,.69,1.08,1.46,1.26,2.31,.18,.85,.09,1.67-.26,2.45l6.12,1.92-2.44,2.39-5.54-1.84s-.04,.04-.05,.05-.03,.03-.05,.05l-1.61,1.58,3.64,3.71-2.15,2.1-10.05-10.26Zm8.82,.99c.53-.52,.81-1.07,.83-1.65,.03-.58-.21-1.12-.7-1.63h-.01c-.48-.51-1.02-.74-1.62-.72s-1.16,.29-1.69,.8l-1.83,1.79,3.16,3.23,1.86-1.82Z"/><path class="cls-2" d="M128.72,135.77l6.8-6.66,1.73,1.77-4.65,4.56,2.41,2.46,4.39-4.3,1.65,1.69-4.39,4.3,2.52,2.58,4.65-4.56,1.73,1.77-6.8,6.66-10.05-10.26Z"/><path class="cls-2" d="M137.07,127.59l6.8-6.66,1.73,1.77-4.65,4.56,2.41,2.46,4.39-4.3,1.65,1.69-4.39,4.3,2.52,2.58,4.65-4.56,1.73,1.77-6.8,6.66-10.05-10.26Z"/><path class="cls-2" d="M159.86,124.46c-1.15,.29-2.31,.24-3.49-.17-1.17-.4-2.3-1.16-3.38-2.26h0c-1.08-1.11-1.81-2.25-2.19-3.43-.37-1.18-.4-2.34-.09-3.48,.32-1.14,.98-2.2,1.98-3.18,.83-.81,1.73-1.38,2.69-1.69,.97-.31,1.92-.38,2.87-.2,.95,.18,1.81,.6,2.58,1.26l.08,.06-2.1,2.05-.15-.09c-.45-.3-.92-.49-1.4-.56-.48-.08-.96-.03-1.44,.13-.48,.16-.93,.45-1.35,.87-.55,.54-.89,1.15-1.01,1.82-.13,.68-.05,1.38,.24,2.11,.29,.73,.78,1.46,1.48,2.17h0c.71,.73,1.43,1.24,2.16,1.55,.73,.31,1.44,.4,2.12,.29,.68-.12,1.29-.44,1.84-.97,.41-.4,.71-.84,.88-1.31,.17-.47,.23-.95,.17-1.45-.06-.5-.25-1-.56-1.49l-.06-.08,2.1-2.05,.07,.08c.64,.79,1.04,1.66,1.2,2.61,.16,.95,.07,1.91-.27,2.86-.34,.96-.92,1.84-1.75,2.65-1,.98-2.08,1.62-3.23,1.91Z"/><path class="cls-2" d="M158.67,106.43l2.15-2.1,4.08,4.17,4.62-4.53-4.08-4.17,2.15-2.1,10.05,10.26-2.15,2.1-4.23-4.32-4.62,4.53,4.23,4.32-2.15,2.1-10.05-10.26Z"/><path class="cls-2" d="M169.3,96.02l6.8-6.66,1.73,1.77-4.65,4.56,2.41,2.46,4.39-4.3,1.65,1.69-4.39,4.3,2.52,2.58,4.65-4.56,1.73,1.77-6.8,6.66-10.05-10.26Z"/><path class="cls-2" d="M177.65,87.84l2.48-2.43,10.14,4.52,.04-.04-4.32-10.22,2.49-2.44,10.05,10.26-1.92,1.88-6.79-6.93-.99,.97-.83-5.15,5.79,13.88-1.35,1.32-13.75-6.08,5.13,.94-1,.98,6.79,6.93-1.91,1.87-10.05-10.26Z"/><path class="cls-2" d="M190.19,75.55l2.15-2.1,10.05,10.26-2.15,2.1-10.05-10.26Z"/><path class="cls-2" d="M205.61,79.65c-1.15,.29-2.31,.24-3.49-.17-1.17-.4-2.3-1.16-3.38-2.26h0c-1.08-1.11-1.81-2.25-2.19-3.43-.37-1.18-.4-2.34-.09-3.48,.32-1.14,.98-2.2,1.98-3.18,.83-.81,1.73-1.38,2.69-1.69s1.92-.38,2.87-.2c.95,.18,1.81,.6,2.58,1.26l.08,.06-2.1,2.05-.15-.09c-.45-.3-.92-.49-1.4-.56-.48-.08-.96-.03-1.44,.12-.48,.16-.93,.45-1.35,.87-.55,.54-.89,1.15-1.02,1.82s-.05,1.38,.24,2.11c.29,.73,.78,1.46,1.48,2.17h0c.71,.73,1.43,1.24,2.16,1.55,.73,.31,1.44,.4,2.12,.29,.68-.12,1.29-.44,1.84-.97,.41-.4,.71-.84,.88-1.31,.17-.47,.23-.95,.17-1.45s-.25-1-.56-1.49l-.06-.08,2.1-2.06,.07,.09c.64,.79,1.04,1.66,1.2,2.61,.16,.95,.07,1.91-.27,2.86-.34,.96-.92,1.84-1.75,2.65-1,.98-2.08,1.62-3.23,1.91Z"/><path class="cls-2" d="M206.99,59.1l1.9-1.86,1.95,1.99-.65,.64,5.53,10.79-2.25,2.21-6.47-13.77Zm3.24,.73l-1.95-1.99,1.24-1.22,13.63,6.76-2.26,2.22-10.66-5.76Zm1.68,6.54l4.79-4.69,2.1,1.09-5.84,5.72-1.05-2.12Z"/><path class="cls-2" d="M214.15,52.09l2.15-2.1,8.32,8.49,4.49-4.4,1.73,1.77-6.64,6.5-10.05-10.26Z"/><path class="cls-2" d="M86.83,211.04l4.24-4.15c.77-.75,1.56-1.26,2.36-1.54,.8-.27,1.59-.31,2.36-.11,.77,.2,1.49,.65,2.17,1.34h.01c.66,.69,1.09,1.46,1.26,2.31,.18,.85,.09,1.67-.26,2.45l6.12,1.92-2.44,2.39-5.54-1.84s-.04,.04-.05,.05c-.02,.02-.03,.03-.05,.05l-1.61,1.58,3.64,3.71-2.15,2.1-10.05-10.26Zm8.82,.99c.53-.52,.81-1.07,.83-1.65,.02-.58-.21-1.12-.7-1.62h-.01c-.48-.51-1.02-.75-1.62-.72-.6,.02-1.16,.29-1.69,.8l-1.83,1.79,3.16,3.23,1.86-1.82Z"/><path class="cls-2" d="M96.15,201.91l2.15-2.1,10.05,10.26-2.15,2.1-10.05-10.26Z"/><path class="cls-2" d="M111.51,206.62c-.84,.35-1.65,.48-2.44,.37-.79-.11-1.51-.46-2.16-1.05l-.12-.11,2.03-1.99,.09,.06c.31,.22,.65,.33,1.03,.33,.38,0,.78-.09,1.19-.29,.41-.2,.81-.48,1.2-.86,.4-.39,.69-.78,.87-1.17s.25-.76,.22-1.11c-.04-.35-.18-.66-.44-.92h0c-.34-.35-.74-.49-1.21-.42-.47,.07-1.08,.35-1.84,.85l-1.3,.84c-1.21,.79-2.3,1.19-3.29,1.21-.99,.02-1.86-.36-2.62-1.13h0c-.61-.64-.97-1.35-1.09-2.14s-.01-1.61,.32-2.45c.33-.84,.88-1.63,1.64-2.37,.79-.78,1.6-1.32,2.42-1.64,.82-.32,1.61-.41,2.37-.27,.76,.13,1.45,.48,2.08,1.05l.13,.12-2.03,1.99-.1-.07c-.3-.24-.62-.37-.98-.39-.35-.03-.72,.04-1.09,.2s-.74,.42-1.09,.76c-.37,.36-.63,.72-.79,1.08-.16,.36-.22,.71-.18,1.03,.04,.32,.18,.61,.42,.85h0c.32,.33,.71,.46,1.18,.39s1.05-.34,1.76-.79l1.3-.84c.86-.56,1.64-.94,2.34-1.14s1.36-.22,1.95-.05c.59,.17,1.15,.52,1.68,1.05h0c.65,.67,1.04,1.4,1.18,2.2s.03,1.64-.33,2.51c-.36,.87-.97,1.73-1.83,2.57-.81,.79-1.64,1.37-2.47,1.72Z"/><path class="cls-2" d="M109.2,189.13l2.15-2.1,10.05,10.26-2.15,2.1-10.05-10.26Zm6.66,2.67l.13-.13-.83-8.38,2.39-2.34,.78,8.34-.42,.41,.44,4.64-2.49-2.54Zm1.39,.04l.17-2.93,10.45,2.05-2.57,2.52-8.04-1.64Z"/><path class="cls-2" d="M124.52,174.12l1.9-1.86,1.95,1.99-.65,.64,5.53,10.79-2.25,2.21-6.47-13.77Zm3.24,.73l-1.95-1.99,1.24-1.22,13.63,6.76-2.26,2.21-10.66-5.76Zm1.68,6.54l4.79-4.69,2.1,1.09-5.84,5.72-1.05-2.12Z"/><path class="cls-2" d="M142.97,175.81c-.84,.35-1.65,.48-2.44,.37-.79-.11-1.51-.46-2.16-1.05l-.12-.11,2.03-1.99,.09,.06c.31,.22,.65,.33,1.03,.33,.38,0,.78-.09,1.19-.29,.41-.2,.81-.48,1.2-.86,.4-.39,.69-.78,.87-1.17,.18-.39,.25-.76,.22-1.11-.04-.35-.18-.66-.44-.92h0c-.34-.35-.74-.49-1.21-.42-.47,.07-1.08,.35-1.84,.85l-1.3,.84c-1.21,.79-2.3,1.2-3.29,1.21-.99,.02-1.86-.36-2.62-1.13h0c-.61-.64-.97-1.35-1.09-2.14-.12-.79-.01-1.61,.32-2.45,.33-.84,.88-1.63,1.64-2.37,.79-.78,1.6-1.32,2.42-1.64,.82-.32,1.61-.41,2.37-.27,.76,.13,1.45,.48,2.08,1.05l.13,.12-2.03,1.99-.1-.07c-.3-.24-.62-.37-.98-.39-.35-.02-.72,.04-1.09,.2-.37,.16-.74,.42-1.09,.76-.37,.36-.63,.72-.79,1.08-.16,.36-.22,.71-.18,1.03,.04,.32,.18,.61,.42,.85h0c.32,.33,.71,.46,1.18,.39,.47-.07,1.05-.34,1.76-.8l1.3-.84c.86-.56,1.64-.94,2.34-1.14,.71-.2,1.36-.22,1.95-.05,.59,.17,1.15,.52,1.68,1.05h0c.65,.67,1.04,1.4,1.18,2.2,.14,.8,.03,1.64-.33,2.51-.36,.87-.97,1.73-1.84,2.57-.81,.79-1.64,1.37-2.47,1.72Z"/><path class="cls-2" d="M152.17,166.8c-.84,.35-1.65,.48-2.44,.37-.79-.11-1.51-.46-2.16-1.05l-.12-.11,2.03-1.98,.09,.06c.31,.22,.65,.33,1.03,.33,.38,0,.78-.09,1.19-.29,.41-.2,.81-.48,1.2-.86,.4-.39,.69-.78,.87-1.17s.25-.76,.22-1.11c-.04-.35-.18-.66-.44-.92h0c-.34-.35-.74-.49-1.21-.42-.47,.07-1.08,.35-1.84,.85l-1.3,.84c-1.21,.79-2.3,1.2-3.29,1.21-.99,.02-1.87-.36-2.62-1.13h0c-.61-.64-.97-1.35-1.09-2.14-.12-.79-.01-1.61,.32-2.45,.33-.84,.88-1.63,1.64-2.37,.79-.78,1.6-1.32,2.42-1.64,.82-.32,1.61-.41,2.37-.27,.76,.13,1.45,.48,2.08,1.05l.13,.12-2.03,1.99-.1-.07c-.3-.24-.62-.37-.98-.39-.35-.02-.72,.04-1.09,.2-.37,.16-.74,.42-1.09,.76-.37,.36-.63,.72-.79,1.08s-.22,.71-.18,1.03c.04,.32,.18,.61,.42,.85h0c.32,.33,.71,.46,1.18,.39,.47-.07,1.05-.34,1.76-.79l1.3-.84c.86-.56,1.64-.94,2.34-1.14,.71-.2,1.36-.22,1.95-.05,.59,.17,1.15,.52,1.68,1.05h0c.65,.67,1.04,1.4,1.18,2.2s.03,1.64-.33,2.51c-.36,.87-.97,1.73-1.84,2.57-.81,.79-1.63,1.37-2.47,1.72Z"/><path class="cls-2" d="M149.86,149.3l6.8-6.66,1.73,1.77-4.65,4.56,2.41,2.46,4.39-4.3,1.65,1.69-4.39,4.3,2.52,2.58,4.65-4.56,1.73,1.77-6.8,6.66-10.05-10.26Z"/><path class="cls-2" d="M169.71,149.61c-.84,.35-1.65,.48-2.44,.37-.79-.11-1.51-.46-2.16-1.05l-.12-.11,2.03-1.99,.09,.06c.31,.22,.65,.33,1.03,.33,.38,0,.78-.09,1.19-.29,.41-.2,.81-.48,1.2-.86,.4-.39,.69-.78,.87-1.17s.25-.76,.22-1.11c-.04-.35-.18-.66-.44-.92h0c-.34-.35-.74-.49-1.21-.42-.47,.07-1.08,.35-1.84,.85l-1.3,.84c-1.21,.79-2.3,1.19-3.29,1.21-.99,.02-1.86-.36-2.62-1.13h0c-.61-.64-.97-1.35-1.09-2.14-.12-.79-.01-1.61,.32-2.45,.33-.84,.88-1.63,1.64-2.37,.79-.78,1.6-1.32,2.42-1.64,.82-.32,1.61-.41,2.37-.27,.76,.13,1.45,.48,2.08,1.05l.13,.12-2.03,1.99-.1-.07c-.3-.24-.62-.37-.98-.39-.35-.02-.72,.04-1.09,.2s-.74,.42-1.09,.76c-.37,.36-.63,.72-.79,1.08-.16,.36-.22,.71-.18,1.03,.04,.33,.18,.61,.42,.85h0c.32,.33,.71,.46,1.18,.39,.47-.07,1.05-.34,1.76-.79l1.3-.84c.86-.56,1.64-.94,2.34-1.14,.71-.2,1.36-.21,1.95-.05,.59,.17,1.15,.52,1.68,1.05h0c.65,.67,1.04,1.4,1.18,2.2,.14,.8,.03,1.64-.33,2.51-.36,.87-.97,1.73-1.83,2.57-.81,.79-1.64,1.37-2.47,1.72Z"/><path class="cls-2" d="M178.91,140.61c-.84,.35-1.65,.48-2.44,.37-.79-.11-1.51-.46-2.16-1.05l-.12-.11,2.03-1.99,.09,.06c.31,.22,.65,.33,1.03,.33,.38,0,.78-.09,1.19-.29,.41-.2,.81-.48,1.2-.86,.4-.39,.69-.78,.87-1.17,.18-.39,.25-.76,.22-1.11-.04-.35-.18-.66-.44-.92h0c-.34-.35-.74-.49-1.21-.42-.47,.07-1.08,.35-1.84,.85l-1.3,.84c-1.21,.79-2.3,1.19-3.29,1.21-.99,.02-1.86-.36-2.62-1.13h0c-.61-.64-.97-1.35-1.09-2.14-.12-.79-.01-1.61,.32-2.45,.33-.84,.88-1.63,1.64-2.37,.79-.78,1.6-1.32,2.42-1.64,.82-.32,1.61-.41,2.37-.27,.76,.13,1.45,.48,2.08,1.05l.13,.12-2.03,1.99-.1-.07c-.3-.24-.62-.37-.98-.39-.35-.02-.72,.04-1.09,.2-.37,.16-.74,.42-1.09,.76-.37,.36-.63,.72-.79,1.08-.16,.37-.22,.71-.18,1.03,.04,.33,.18,.61,.42,.85h0c.32,.33,.71,.46,1.18,.39,.47-.07,1.05-.34,1.76-.79l1.3-.85c.86-.56,1.64-.94,2.34-1.14,.71-.2,1.36-.21,1.95-.05,.59,.17,1.15,.52,1.68,1.05h0c.65,.67,1.04,1.4,1.18,2.2,.14,.8,.03,1.64-.33,2.51-.36,.87-.97,1.73-1.84,2.57-.81,.79-1.64,1.37-2.47,1.72Z"/><path class="cls-2" d="M176.6,123.11l2.48-2.43,10.14,4.52,.04-.04-4.31-10.22,2.49-2.44,10.05,10.26-1.92,1.88-6.79-6.93-.99,.97-.83-5.15,5.79,13.88-1.35,1.32-13.76-6.08,5.13,.94-1,.98,6.79,6.93-1.91,1.87-10.05-10.26Z"/><path class="cls-2" d="M189.15,110.82l6.8-6.66,1.73,1.77-4.65,4.56,2.41,2.46,4.39-4.3,1.65,1.69-4.39,4.3,2.52,2.58,4.65-4.56,1.73,1.77-6.8,6.66-10.05-10.26Z"/><path class="cls-2" d="M197.5,102.65l1.88-1.84,13.44,2.57-3.13,.4,.9-.88-6.53-6.67,2.14-2.1,10.05,10.26-1.86,1.83-13.5-2.6,3.13-.4-.9,.88,6.58,6.71-2.14,2.1-10.05-10.26Z"/><path class="cls-2" d="M212.09,91.82l-2.97,2.91-1.73-1.77,8.09-7.93,1.73,1.77-2.97,2.91,8.32,8.49-2.15,2.1-8.32-8.49Z"/></g><polygon class="cls-4" points="149.06 240.61 247.84 141.83 247.84 93.79 96.58 241.06 160.34 241.06 149.06 240.61"/><g><path class="cls-3" d="M146.93,221.41c-.48,.19-.93,.26-1.37,.19-.43-.06-.83-.24-1.19-.53l-.05-.04,1.39-1.36,.05,.03c.25,.16,.51,.22,.78,.18,.27-.04,.55-.2,.83-.48,.18-.18,.32-.35,.4-.52,.08-.17,.12-.33,.11-.48,0-.15-.07-.28-.18-.4h0c-.14-.15-.3-.21-.48-.19-.18,.02-.43,.12-.74,.32l-1.08,.68c-.41,.26-.79,.43-1.15,.52-.36,.09-.7,.09-1,0-.31-.09-.59-.26-.85-.52h0c-.33-.34-.52-.72-.58-1.14s0-.86,.21-1.32c.2-.46,.52-.91,.96-1.34,.46-.45,.93-.76,1.4-.93,.47-.17,.91-.21,1.33-.13s.78,.27,1.09,.56l.05,.05-1.31,1.29-.04-.03c-.21-.16-.44-.23-.72-.21-.27,.02-.54,.16-.81,.42-.16,.16-.28,.32-.36,.48-.08,.16-.11,.32-.09,.46,.02,.14,.08,.27,.19,.39h0c.09,.09,.19,.15,.3,.18,.11,.03,.25,.01,.4-.03,.16-.05,.34-.14,.55-.27l1.08-.68c.66-.43,1.22-.64,1.69-.65s.88,.18,1.26,.57h0c.33,.35,.53,.74,.58,1.19s-.02,.91-.23,1.39c-.21,.48-.53,.94-.98,1.38-.48,.47-.96,.8-1.44,1Z"/><path class="cls-3" d="M152.05,216.18c-.53,.09-1.08,.02-1.66-.21-.57-.24-1.13-.64-1.69-1.21h0c-.56-.58-.95-1.15-1.17-1.72-.22-.57-.28-1.13-.18-1.66,.11-.53,.38-1.01,.81-1.43,.25-.25,.52-.43,.81-.55,.29-.12,.58-.19,.89-.19,.3,0,.61,.05,.91,.17l.03-.03-2.67-2.72,1.43-1.4,6.9,7.05-1.43,1.4-.88-.89-.03,.03c.11,.3,.16,.6,.15,.91,0,.3-.08,.6-.21,.88-.13,.29-.32,.55-.57,.79-.44,.43-.92,.69-1.46,.79Zm1.21-3.22c.05-.3,.01-.61-.12-.93-.13-.33-.35-.65-.66-.96h0c-.31-.32-.62-.54-.95-.68-.32-.14-.63-.18-.93-.13-.3,.04-.56,.18-.79,.41-.24,.23-.38,.5-.43,.79-.05,.29-.01,.6,.12,.92,.13,.32,.35,.64,.66,.96h0c.31,.32,.62,.55,.94,.69,.32,.14,.63,.19,.92,.14,.3-.04,.56-.18,.8-.42,.23-.23,.37-.49,.43-.79Z"/><path class="cls-3" d="M158.44,210.15c-.48,.19-.93,.26-1.36,.19-.43-.06-.83-.24-1.19-.53l-.05-.04,1.39-1.36,.05,.03c.25,.16,.5,.22,.78,.18,.27-.04,.55-.2,.83-.48,.18-.18,.32-.35,.4-.52,.08-.17,.12-.33,.11-.48,0-.15-.07-.28-.18-.4h0c-.14-.15-.3-.21-.48-.19-.18,.01-.43,.12-.74,.32l-1.08,.68c-.41,.26-.79,.43-1.15,.52-.36,.09-.7,.09-1,0-.31-.09-.59-.26-.85-.52h0c-.33-.34-.52-.72-.58-1.14s.01-.86,.21-1.32c.2-.46,.52-.91,.96-1.34,.46-.45,.93-.76,1.4-.93s.91-.21,1.33-.13c.42,.08,.78,.27,1.09,.56l.05,.05-1.31,1.29-.04-.03c-.2-.16-.44-.23-.72-.21-.27,.02-.54,.17-.81,.42-.16,.16-.28,.32-.36,.48-.08,.16-.11,.32-.09,.46s.08,.27,.19,.39h0c.09,.09,.18,.15,.3,.18,.11,.03,.25,.02,.4-.03,.16-.05,.34-.14,.55-.27l1.08-.68c.66-.43,1.22-.64,1.69-.65s.88,.18,1.26,.57h0c.33,.35,.53,.74,.58,1.19s-.02,.91-.23,1.38c-.21,.48-.53,.94-.98,1.38-.48,.47-.96,.81-1.44,1Z"/><path class="cls-3" d="M157.16,199.59c-.29,0-.54-.1-.74-.31-.2-.21-.3-.45-.29-.74,0-.29,.12-.54,.33-.75,.21-.21,.47-.31,.76-.31,.29,0,.53,.1,.73,.31,.2,.2,.29,.45,.29,.74,0,.29-.11,.54-.32,.75-.21,.21-.47,.32-.76,.31Zm.7,1.06l1.43-1.4,5.13,5.24-1.43,1.4-5.13-5.24Z"/><path class="cls-3" d="M160.44,198.12l1.43-1.4,.84,.86,.03-.03c-.16-.43-.19-.87-.09-1.3,.1-.43,.34-.84,.74-1.23,.58-.56,1.19-.83,1.85-.79,.65,.04,1.28,.37,1.88,.98l3.31,3.38-1.43,1.4-3.02-3.08c-.33-.34-.67-.53-1.02-.56-.35-.03-.68,.11-1,.42-.21,.21-.35,.44-.41,.69-.06,.25-.05,.5,.03,.76s.24,.5,.46,.73l2.95,3.01-1.43,1.4-5.13-5.24Z"/><path class="cls-3" d="M165.95,192.73l1.53-1.5,4.99,2.9,.03-.03-2.82-5.03,1.49-1.46,3.33,7-1.61,1.58-6.94-3.46Z"/><path class="cls-3" d="M177.6,191.14c-.6,.16-1.2,.13-1.81-.07-.61-.2-1.18-.58-1.73-1.14h0c-.55-.56-.91-1.15-1.11-1.76-.19-.61-.21-1.22-.05-1.81,.16-.59,.49-1.14,1-1.64,.51-.5,1.06-.83,1.64-.97,.58-.15,1.17-.13,1.76,.07,.59,.19,1.14,.56,1.66,1.08l.44,.44-4.31,4.22-.88-.9,3.64-3.56,.15,1.51-.54-.55c-.3-.31-.6-.52-.89-.63-.3-.12-.58-.14-.85-.08-.27,.06-.52,.2-.74,.42-.22,.22-.36,.46-.43,.74-.07,.27-.05,.56,.06,.86,.11,.3,.31,.6,.6,.9l.55,.56c.28,.29,.57,.49,.87,.6,.3,.11,.59,.13,.87,.07,.29-.07,.55-.22,.8-.46,.2-.19,.33-.39,.42-.59,.08-.2,.12-.39,.12-.58,0-.18-.03-.34-.1-.47l-.02-.04,1.31-1.28,.04,.07c.15,.23,.26,.5,.34,.81,.08,.31,.1,.64,.06,.99-.03,.35-.14,.71-.33,1.08s-.46,.74-.84,1.11c-.53,.52-1.1,.86-1.7,1.02Z"/><path class="cls-3" d="M177.44,181.48l1.43-1.4,.84,.86,.03-.03c-.16-.43-.19-.87-.09-1.3s.34-.84,.74-1.23c.58-.56,1.19-.83,1.85-.79,.65,.04,1.28,.37,1.88,.98l3.31,3.38-1.43,1.4-3.02-3.08c-.33-.34-.67-.53-1.02-.56-.35-.03-.68,.11-1,.42-.21,.21-.35,.44-.41,.69-.06,.25-.05,.5,.03,.76,.08,.26,.24,.5,.46,.73l2.95,3.01-1.43,1.4-5.13-5.24Z"/><path class="cls-3" d="M189.07,179.84c-.52,.03-1.05-.23-1.6-.79l-2.64-2.7-.73,.71-1.05-1.08,.73-.71-1.25-1.28,1.44-1.41,1.25,1.28,.96-.94,1.05,1.08-.96,.94,2.49,2.54c.24,.24,.46,.36,.66,.35,.2-.01,.41-.12,.63-.33,.07-.06,.12-.12,.16-.17,.04-.05,.08-.1,.12-.15l1.02,1.04c-.07,.09-.15,.2-.25,.32-.1,.12-.23,.26-.38,.41-.58,.57-1.13,.87-1.65,.9Z"/><path class="cls-3" d="M193.02,176.04c-.6,.16-1.21,.14-1.82-.06-.61-.2-1.2-.58-1.75-1.15h0c-.55-.57-.92-1.16-1.1-1.78-.18-.62-.18-1.23,0-1.82s.52-1.15,1.04-1.66c.52-.51,1.09-.85,1.69-1.02,.6-.16,1.21-.15,1.82,.05,.61,.2,1.2,.58,1.75,1.14h0c.56,.58,.93,1.17,1.11,1.79,.19,.62,.19,1.22,.01,1.82-.17,.6-.53,1.15-1.05,1.67-.53,.52-1.09,.86-1.7,1.02Zm1.02-2.92c.05-.29,0-.6-.14-.93-.14-.33-.38-.67-.72-1.01h0c-.33-.35-.66-.59-.99-.73-.33-.15-.64-.2-.93-.16-.29,.04-.56,.18-.79,.4-.23,.22-.36,.48-.41,.78-.05,.29,0,.61,.14,.94s.37,.66,.7,1h0c.33,.35,.67,.6,.99,.75,.33,.15,.64,.2,.93,.16,.29-.04,.56-.18,.79-.41,.23-.23,.37-.48,.42-.78Z"/><path class="cls-3" d="M193.01,166.22l1.43-1.4,.89,.91,.03-.03c-.24-.4-.34-.79-.31-1.17,.03-.38,.2-.72,.5-1.02,.08-.08,.16-.14,.24-.21,.08-.06,.16-.11,.22-.14l1.23,1.26c-.08,.03-.18,.08-.28,.16-.11,.07-.21,.16-.31,.26-.23,.23-.39,.47-.47,.73-.08,.25-.07,.51,.01,.77,.08,.26,.25,.52,.5,.77l2.87,2.93-1.43,1.4-5.13-5.24Z"/><path class="cls-3" d="M204.23,168.83c-.14,.11-.26,.2-.37,.27l-1.04-1.06c.06-.04,.13-.09,.23-.16,.09-.07,.19-.16,.3-.26,.21-.21,.35-.41,.4-.61,.05-.19,.03-.41-.08-.64l-.11-.23-6.97-3.43,1.57-1.54,5.47,3.22-.47-.1,.27-.26,.09,.47-3.11-5.53,1.51-1.48,3.42,7.09c.27,.54,.41,1.04,.44,1.48,.03,.44-.06,.85-.25,1.24-.19,.38-.48,.76-.87,1.14-.14,.14-.28,.26-.42,.38Z"/><path class="cls-3" d="M207.12,162.38c-.3,0-.56-.11-.78-.33-.22-.22-.32-.48-.32-.79,0-.3,.12-.56,.34-.78s.48-.32,.79-.32c.3,0,.56,.12,.78,.34,.22,.22,.32,.48,.32,.79,0,.3-.12,.56-.34,.78-.22,.22-.48,.32-.79,.32Z"/><path class="cls-3" d="M210.27,159.14c-.6,.16-1.21,.14-1.82-.07-.61-.2-1.19-.58-1.74-1.14h0c-.55-.57-.92-1.15-1.1-1.76-.18-.61-.19-1.22-.02-1.82,.17-.6,.52-1.15,1.04-1.66,.48-.47,.97-.78,1.5-.94,.52-.16,1.03-.19,1.52-.08,.49,.11,.94,.34,1.33,.7l.03,.03-1.33,1.3-.05-.04c-.28-.21-.6-.31-.93-.31-.34,0-.66,.14-.95,.43-.23,.23-.37,.49-.41,.78-.04,.29,0,.61,.14,.94,.14,.33,.38,.66,.7,.99h0c.33,.35,.67,.59,.99,.74,.33,.15,.64,.2,.93,.16,.29-.04,.56-.18,.79-.41,.29-.28,.44-.59,.46-.92,.02-.33-.08-.65-.29-.96l-.03-.05,1.33-1.3,.03,.03c.35,.4,.57,.85,.67,1.35,.1,.5,.06,1-.11,1.52-.17,.52-.49,1-.96,1.46-.53,.52-1.1,.86-1.7,1.02Z"/><path class="cls-3" d="M215.93,153.61c-.6,.16-1.21,.14-1.82-.06-.61-.2-1.2-.58-1.75-1.15h0c-.55-.57-.92-1.16-1.1-1.78-.18-.62-.18-1.23,0-1.82,.17-.6,.52-1.15,1.04-1.66,.52-.51,1.09-.85,1.69-1.02,.6-.16,1.21-.15,1.82,.05,.61,.2,1.2,.58,1.75,1.14h0c.56,.58,.93,1.17,1.12,1.79,.18,.62,.19,1.22,.01,1.82-.17,.6-.53,1.15-1.05,1.67-.53,.52-1.09,.86-1.7,1.02Zm1.02-2.92c.05-.29,0-.6-.14-.93-.14-.33-.38-.67-.72-1.01h0c-.33-.35-.66-.59-.99-.73-.33-.15-.64-.2-.93-.16-.29,.04-.56,.18-.79,.4-.23,.22-.37,.48-.41,.78-.05,.29,0,.61,.14,.94,.14,.33,.37,.66,.7,1h0c.33,.35,.67,.6,.99,.75,.33,.15,.64,.2,.93,.16,.29-.04,.56-.18,.79-.41,.23-.23,.37-.48,.42-.78Z"/><path class="cls-3" d="M215.92,143.79l1.43-1.4,.86,.88,.03-.03c-.19-.4-.24-.82-.15-1.26,.08-.43,.3-.82,.65-1.17,.24-.24,.5-.41,.78-.52,.28-.11,.56-.15,.85-.12,.29,.03,.58,.13,.86,.31l.03-.03c-.14-.3-.21-.61-.21-.92,0-.32,.07-.62,.2-.92,.13-.3,.32-.58,.58-.83,.34-.33,.71-.56,1.11-.66,.4-.1,.8-.09,1.2,.03s.78,.36,1.12,.72l3.51,3.58-1.43,1.4-3.15-3.22c-.2-.21-.4-.34-.6-.42-.2-.07-.4-.08-.6-.03-.2,.05-.39,.17-.58,.35-.18,.17-.29,.37-.35,.58-.05,.22-.05,.43,.02,.65s.2,.43,.39,.62l3.11,3.18-1.37,1.34-3.2-3.26c-.18-.19-.38-.32-.58-.38-.2-.07-.4-.07-.59-.02-.2,.05-.38,.16-.56,.33-.18,.17-.29,.37-.35,.59-.05,.22-.04,.44,.03,.67,.07,.22,.2,.43,.39,.63l3.09,3.16-1.43,1.4-5.13-5.24Z"/></g></g></g></svg>