<?xml version="1.0" encoding="UTF-8"?><svg id="Layer_2" xmlns="http://www.w3.org/2000/svg" viewBox="0 0 278.32 278.42"><defs><style>.cls-1{fill:#f1f2f2;}</style></defs><g id="Layer_1-2"><g><path class="cls-1" d="M261.11,32.04c.23,7.06-4.5,11.33-8.92,15.75-46.74,46.76-93.49,93.5-140.24,140.25-20.72,20.72-41.43,41.45-62.17,62.16-2.43,2.42-4.81,4.93-7.49,7.04-7.32,5.77-15.3,5.5-21.03-.51-5.67-5.94-5.96-14.39,.37-21.05,11.8-12.42,24.09-24.38,36.21-36.5,39.67-39.69,79.39-79.34,119.02-119.08,17.78-17.83,35.37-35.85,53.15-53.68,2.62-2.63,5.64-5,8.84-6.87,9.8-5.72,21.98,1.22,22.25,12.49Z"/><path class="cls-1" d="M215.13,22.86l-20.33,20.33c-1.09-.43-2.23-.95-3.43-1.57C123.55,6.59,44.34,44.62,30.28,119.06c-4.76,25.11-2.15,49.99,10.97,72.44,.71,1.22,1.31,2.38,1.76,3.48l-20.33,20.33c-.21-.28-.39-.58-.6-.9C7.43,191.48,.07,166.47,0,139.28,.09,33.29,116.14-34.39,207.49,18.24c3.28,1.89,5.8,3.35,7.64,4.62Z"/><path class="cls-1" d="M161.52,276.67c-34.75,5.24-66.92-1.24-96.78-19.77-.79-.49-1.52-.97-2.15-1.48l20.13-20.13c1.22,.43,2.51,1.01,3.89,1.74,66.95,34.9,145.08-1.82,161.28-75.28,1.7-7.71,1.4-15.48,1.61-23.25,.84-18.61-3.54-36.17-12.98-51.94-.71-1.2-1.27-2.32-1.7-3.37l20.31-20.31c1.24,1.68,2.68,4.08,4.55,7.25,48.89,82.29-3.45,192.28-98.16,206.55Z"/></g></g></svg>